<svg xmlns="http://www.w3.org/2000/svg" version="1.1" viewBox="0.00 0.00 97.00 58.00" width="97.00" height="58.00">
<g stroke-width="2.00" fill="none" stroke-linecap="butt">
<path stroke="#446e94" d="&#10;  M 77.21 26.02&#10;  Q 74.80 23.56 72.43 22.08&#10;  Q 69.18 20.06 65.61 18.65&#10;  Q 62.03 17.24 58.54 12.78"/>
<path stroke="#2b4a66" d="&#10;  M 77.52 30.20&#10;  Q 77.35 31.13 76.73 31.21&#10;  Q 76.11 31.29 76.11 30.66&#10;  L 76.11 28.94&#10;  Q 76.11 28.37 75.74 27.95&#10;  Q 74.02 26.00 70.61 25.19&#10;  Q 63.17 23.40 58.22 23.48"/>
<path stroke="#325677" d="&#10;  M 90.39 22.90&#10;  Q 90.62 21.02 88.02 21.08&#10;  Q 80.05 21.26 78.46 28.75&#10;  Q 78.40 29.06 77.93 29.05"/>
<path stroke="#325677" d="&#10;  M 77.93 29.05&#10;  L 77.91 28.24"/>
<path stroke="#2b4a66" d="&#10;  M 61.15 25.06&#10;  Q 61.03 24.96 60.64 24.74&#10;  Q 60.02 24.40 60.03 25.10&#10;  Q 60.04 25.65 60.51 25.77&#10;  Q 61.34 25.99 61.74 25.71&#10;  Q 62.05 25.50 61.74 25.28&#10;  Q 61.46 25.09 61.15 25.06"/>
</g>
<path fill="#4b7aa5" d="&#10;  M 77.21 26.02&#10;  Q 74.80 23.56 72.43 22.08&#10;  Q 69.18 20.06 65.61 18.65&#10;  Q 62.03 17.24 58.54 12.78&#10;  Q 55.65 6.63 56.99 1.68&#10;  Q 57.38 0.27 58.02 1.58&#10;  Q 61.66 9.01 68.01 14.64&#10;  Q 69.06 15.57 75.25 20.74&#10;  Q 76.94 22.16 77.21 26.02&#10;  Z"/>
<path fill="#4b7aa5" d="&#10;  M 78.70 15.98&#10;  Q 79.01 16.56 79.14 16.79&#10;  Q 79.37 17.22 78.87 17.41&#10;  L 75.92 18.57&#10;  Q 73.68 19.45 73.86 16.94&#10;  Q 74.25 11.53 78.71 9.00&#10;  Q 81.02 7.69 79.50 9.87&#10;  C 78.51 11.30 77.74 14.17 78.70 15.98&#10;  Z"/>
<path fill="#3d6183" d="&#10;  M 58.54 12.78&#10;  Q 62.03 17.24 65.61 18.65&#10;  Q 69.18 20.06 72.43 22.08&#10;  Q 74.80 23.56 77.21 26.02&#10;  Q 77.27 27.35 77.08 29.51&#10;  Q 77.04 29.96 77.52 30.20&#10;  Q 77.35 31.13 76.73 31.21&#10;  Q 76.11 31.29 76.11 30.66&#10;  L 76.11 28.94&#10;  Q 76.11 28.37 75.74 27.95&#10;  Q 74.02 26.00 70.61 25.19&#10;  Q 63.17 23.40 58.22 23.48&#10;  Q 55.78 21.62 55.14 18.67&#10;  A 0.55 0.55 0.0 0 1 55.92 18.06&#10;  L 60.00 20.09&#10;  Q 60.07 20.12 60.13 19.97&#10;  L 60.13 19.96&#10;  Q 60.18 19.83 60.13 19.80&#10;  Q 54.84 16.31 55.10 10.25&#10;  Q 55.18 8.44 56.15 9.97&#10;  Q 56.85 11.07 58.54 12.78&#10;  Z"/>
<path fill="#193248" d="&#10;  M 20.49 36.71&#10;  C 19.56 35.79 18.92 34.66 18.90 33.30&#10;  Q 18.82 22.27 18.79 17.79&#10;  Q 18.78 16.84 19.73 16.84&#10;  L 20.27 16.84&#10;  Q 21.24 16.84 21.24 17.82&#10;  L 21.24 32.67&#10;  Q 21.24 33.22 21.60 33.64&#10;  Q 23.24 35.53 21.84 36.91&#10;  Q 21.43 37.32 21.79 37.77&#10;  Q 22.31 38.40 22.10 39.37&#10;  Q 21.99 39.87 21.50 40.00&#10;  Q 20.66 40.21 19.99 39.94&#10;  A 1.04 1.03 26.1 0 1 19.48 38.46&#10;  Q 19.94 37.64 20.38 37.42&#10;  A 0.45 0.45 0.0 0 0 20.49 36.71&#10;  Z"/>
<path fill="#193248" d="&#10;  M 3.87 22.15&#10;  Q 3.87 22.80 4.41 22.44&#10;  Q 8.20 19.91 11.52 20.91&#10;  C 18.02 22.87 20.25 30.45 15.03 35.19&#10;  C 10.85 38.99 4.29 37.62 1.86 32.39&#10;  Q 1.12 30.79 1.10 26.79&#10;  Q 1.08 21.38 1.11 17.94&#10;  Q 1.11 16.83 2.22 16.83&#10;  L 2.72 16.83&#10;  Q 3.86 16.83 3.86 17.96&#10;  L 3.87 22.15&#10;  Z&#10;  M 10.2405 34.7295&#10;  A 5.75 5.65 82.4 0 0 15.0804 28.2828&#10;  A 5.75 5.65 82.4 0 0 8.7195 23.3305&#10;  A 5.75 5.65 82.4 0 0 3.8796 29.7772&#10;  A 5.75 5.65 82.4 0 0 10.2405 34.7295&#10;  Z"/>
<path fill="#4b7aa5" d="&#10;  M 90.39 22.90&#10;  Q 90.62 21.02 88.02 21.08&#10;  Q 80.05 21.26 78.46 28.75&#10;  Q 78.40 29.06 77.93 29.05&#10;  L 77.91 28.24&#10;  Q 78.96 23.55 75.77 20.18&#10;  A 0.58 0.58 0.0 0 1 76.00 19.24&#10;  Q 84.20 16.48 90.70 20.43&#10;  Q 91.87 21.14 92.95 21.37&#10;  Q 93.26 21.43 95.34 22.04&#10;  Q 97.75 22.74 95.25 22.94&#10;  Q 93.28 23.09 90.39 22.90&#10;  Z"/>
<path fill="#193248" d="&#10;  M 41.13 30.63&#10;  Q 41.69 32.67 43.00 33.54&#10;  Q 47.52 36.56 51.22 32.30&#10;  Q 51.63 31.83 52.24 31.93&#10;  Q 52.95 32.05 53.57 32.53&#10;  Q 54.04 32.90 53.68 33.39&#10;  C 49.57 39.07 41.32 38.62 38.77 32.20&#10;  Q 36.60 26.74 40.81 22.97&#10;  Q 45.15 19.08 50.06 21.45&#10;  Q 54.40 23.56 54.90 29.05&#10;  Q 54.99 30.10 53.94 30.10&#10;  L 41.53 30.10&#10;  Q 40.98 30.10 41.13 30.63&#10;  Z&#10;  M 41.58 27.31&#10;  L 51.38 27.37&#10;  A 0.11 0.11 0.0 0 0 51.49 27.26&#10;  L 51.49 27.19&#10;  A 4.93 3.76 0.3 0 0 46.58 23.40&#10;  L 46.42 23.40&#10;  A 4.93 3.76 0.3 0 0 41.47 27.13&#10;  L 41.47 27.20&#10;  A 0.11 0.11 0.0 0 0 41.58 27.31&#10;  Z"/>
<path fill="#193248" d="&#10;  M 30.08 34.82&#10;  C 31.68 34.84 33.29 34.00 34.03 32.82&#10;  Q 34.75 31.68 34.79 29.06&#10;  Q 34.84 25.45 34.87 21.89&#10;  Q 34.87 20.99 35.77 20.99&#10;  L 36.73 20.99&#10;  A 0.84 0.83 -89.3 0 1 37.56 21.85&#10;  Q 37.33 29.58 37.33 29.76&#10;  Q 37.33 33.03 36.12 34.52&#10;  Q 33.68 37.51 30.05 37.46&#10;  Q 26.42 37.42 24.05 34.37&#10;  Q 22.88 32.86 22.95 29.59&#10;  Q 22.96 29.41 22.91 21.67&#10;  A 0.84 0.83 -89.3 0 1 23.76 20.83&#10;  L 24.72 20.86&#10;  Q 25.62 20.88 25.60 21.78&#10;  Q 25.55 25.34 25.51 28.95&#10;  Q 25.49 31.57 26.18 32.72&#10;  C 26.90 33.92 28.48 34.80 30.08 34.82&#10;  Z"/>
<path fill="#193248" d="&#10;  M 90.39 22.90&#10;  Q 86.24 23.54 84.31 27.50&#10;  Q 82.91 30.35 82.02 32.50&#10;  Q 81.31 34.20 77.46 36.15&#10;  Q 76.71 36.53 71.70 38.76&#10;  Q 67.71 40.54 66.25 41.90&#10;  C 62.91 45.01 62.35 48.63 61.76 52.98&#10;  A 0.24 0.23 -71.4 0 1 61.41 53.16&#10;  L 61.00 52.92&#10;  Q 60.89 52.86 60.92 52.73&#10;  Q 61.16 51.64 60.72 51.08&#10;  Q 60.19 50.40 60.12 51.26&#10;  Q 59.97 53.00 59.64 53.97&#10;  Q 59.33 54.90 59.12 53.94&#10;  L 58.83 52.58&#10;  Q 58.80 52.44 58.67 52.44&#10;  L 58.40 52.45&#10;  Q 58.20 52.45 58.17 52.65&#10;  L 57.64 56.08&#10;  Q 57.62 56.20 57.50 56.19&#10;  L 57.20 56.14&#10;  Q 56.96 56.10 56.96 55.86&#10;  Q 57.00 52.35 58.27 48.75&#10;  Q 61.68 39.10 69.18 32.02&#10;  Q 70.13 31.13 68.83 31.02&#10;  Q 62.75 30.55 59.47 26.66&#10;  Q 59.18 26.32 59.03 25.72&#10;  Q 58.90 25.17 59.39 25.01&#10;  Q 60.06 24.80 59.48 24.38&#10;  L 58.22 23.48&#10;  Q 63.17 23.40 70.61 25.19&#10;  Q 74.02 26.00 75.74 27.95&#10;  Q 76.11 28.37 76.11 28.94&#10;  L 76.11 30.66&#10;  Q 76.11 31.29 76.73 31.21&#10;  Q 77.35 31.13 77.52 30.20&#10;  L 77.93 29.05&#10;  Q 78.40 29.06 78.46 28.75&#10;  Q 80.05 21.26 88.02 21.08&#10;  Q 90.62 21.02 90.39 22.90&#10;  Z&#10;  M 61.15 25.06&#10;  Q 61.03 24.96 60.64 24.74&#10;  Q 60.02 24.40 60.03 25.10&#10;  Q 60.04 25.65 60.51 25.77&#10;  Q 61.34 25.99 61.74 25.71&#10;  Q 62.05 25.50 61.74 25.28&#10;  Q 61.46 25.09 61.15 25.06&#10;  Z"/>
<path fill="#3d6183" d="&#10;  M 61.15 25.06&#10;  Q 61.46 25.09 61.74 25.28&#10;  Q 62.05 25.50 61.74 25.71&#10;  Q 61.34 25.99 60.51 25.77&#10;  Q 60.04 25.65 60.03 25.10&#10;  Q 60.02 24.40 60.64 24.74&#10;  Q 61.03 24.96 61.15 25.06&#10;  Z"/>
<path fill="#193248" d="&#10;  M 77.91 28.24&#10;  L 77.93 29.05&#10;  Q 77.81 28.64 77.91 28.24&#10;  Z"/>
<path fill="#193248" d="&#10;  M 4.41 42.71&#10;  Q 8.22 40.18 11.55 41.19&#10;  C 18.06 43.17 20.28 50.78 15.03 55.52&#10;  C 10.83 59.32 4.26 57.93 1.83 52.68&#10;  Q 1.09 51.08 1.08 47.07&#10;  Q 1.07 41.64 1.11 38.19&#10;  Q 1.12 37.08 2.23 37.08&#10;  L 2.73 37.08&#10;  Q 3.87 37.08 3.87 38.22&#10;  L 3.87 42.42&#10;  Q 3.87 43.07 4.41 42.71&#10;  Z&#10;  M 14.9595 48.3678&#10;  A 5.02 5.02 0.0 0 0 9.5772 43.7383&#10;  L 8.5800 43.8133&#10;  A 5.02 5.02 0.0 0 0 3.9506 49.1956&#10;  L 4.0405 50.3922&#10;  A 5.02 5.02 0.0 0 0 9.4228 55.0217&#10;  L 10.4200 54.9467&#10;  A 5.02 5.02 0.0 0 0 15.0494 49.5644&#10;  L 14.9595 48.3678&#10;  Z"/>
<path fill="#193248" d="&#10;  M 50.70 42.55&#10;  L 50.76 38.37&#10;  Q 50.78 37.23 51.91 37.25&#10;  L 52.41 37.25&#10;  Q 53.52 37.27 53.51 38.38&#10;  Q 53.50 41.82 53.41 47.23&#10;  Q 53.34 51.22 52.58 52.81&#10;  C 50.08 58.00 43.51 59.29 39.38 55.44&#10;  C 34.22 50.64 36.54 43.09 43.06 41.21&#10;  Q 46.39 40.26 50.15 42.83&#10;  Q 50.69 43.20 50.70 42.55&#10;  Z&#10;  M 50.74 49.36&#10;  A 5.75 5.75 0.0 0 0 44.99 43.61&#10;  A 5.75 5.75 0.0 0 0 39.24 49.36&#10;  A 5.75 5.75 0.0 0 0 44.99 55.11&#10;  A 5.75 5.75 0.0 0 0 50.74 49.36&#10;  Z"/>
<rect fill="#193248" x="19.46" y="40.87" width="2.54" height="16.74" rx="0.90"/>
<path fill="#193248" d="&#10;  M 28.51 41.94&#10;  Q 28.85 41.81 30.20 41.22&#10;  Q 32.57 40.18 36.11 41.86&#10;  Q 36.62 42.11 36.42 42.63&#10;  Q 36.12 43.39 35.57 43.76&#10;  Q 35.14 44.04 34.64 43.91&#10;  Q 33.12 43.50 32.36 43.54&#10;  Q 27.94 43.79 27.84 48.03&#10;  Q 27.82 48.67 27.85 56.53&#10;  A 0.96 0.96 0.0 0 1 26.89 57.49&#10;  L 25.84 57.49&#10;  Q 25.03 57.49 25.03 56.69&#10;  L 25.03 41.72&#10;  A 0.67 0.66 -3.4 0 1 25.62 41.06&#10;  Q 27.03 40.90 27.71 41.73&#10;  Q 28.04 42.12 28.51 41.94&#10;  Z"/>
</svg>